<svg width="273" height="60" viewBox="0 0 273 60" fill="none" xmlns="http://www.w3.org/2000/svg">
<path d="M26.52 46.02C23.4 46.02 21.84 44.68 21.84 42C21.84 41.12 21.96 40.12 22.2 39C22.48 37.84 22.86 36.36 23.34 34.56C23.9 32.68 24.32 31.08 24.6 29.76C24.88 28.44 25.02 27.26 25.02 26.22C25.02 23.5 23.82 22.14 21.42 22.14C20.78 22.14 20.12 22.22 19.44 22.38L14.64 45H6L14.7 4.2C12.02 5.32 9.94 7 8.46 9.24C7.02 11.48 6.3 14.18 6.3 17.34C6.3 18.82 6.44 19.86 6.72 20.46C7 21.02 7.14 21.34 7.14 21.42C4.98 21.42 3.36 20.98 2.28 20.1C1.24 19.18 0.72 17.68 0.72 15.6C0.72 13.04 1.76 10.56 3.84 8.16C5.96 5.72 8.66 3.76 11.94 2.28C15.22 0.759997 18.5 -3.57628e-06 21.78 -3.57628e-06C22.34 -3.57628e-06 23.14 0.0399971 24.18 0.119998L20.34 18.06C21.14 15.7 22.24 13.3 23.64 10.86C25.08 8.42 26.38 6.54 27.54 5.22C30.38 1.74 33.32 -3.57628e-06 36.36 -3.57628e-06C37.64 -3.57628e-06 38.7 0.359997 39.54 1.08C40.42 1.76 40.86 2.74 40.86 4.02C40.86 5.46 40.48 6.52 39.72 7.2C38.96 7.88 38.04 8.22 36.96 8.22C35.24 8.22 34.06 7.42 33.42 5.82C31.38 7.06 29.52 8.82 27.84 11.1C26.2 13.38 24.62 16.18 23.1 19.5C23.74 19.46 24.58 19.44 25.62 19.44C28.34 19.44 30.26 20.02 31.38 21.18C32.5 22.3 33.06 23.86 33.06 25.86C33.06 27.02 32.92 28.26 32.64 29.58C32.36 30.86 31.96 32.46 31.44 34.38C31.12 35.62 30.82 36.84 30.54 38.04C30.26 39.24 30.12 40.24 30.12 41.04C30.12 41.96 30.32 42.78 30.72 43.5C31.16 44.22 31.74 44.72 32.46 45C30.02 45.68 28.04 46.02 26.52 46.02ZM46.6659 45.36C43.7059 45.36 41.4059 44.6 39.7659 43.08C38.1259 41.52 37.3059 39.1 37.3059 35.82C37.3059 33.06 37.8459 30.02 38.9259 26.7C40.0059 23.38 41.7659 20.52 44.2059 18.12C46.6459 15.68 49.7459 14.46 53.5059 14.46C57.9059 14.46 60.1059 16.38 60.1059 20.22C60.1059 22.46 59.4659 24.52 58.1859 26.4C56.9059 28.28 55.2059 29.8 53.0859 30.96C50.9659 32.08 48.7059 32.72 46.3059 32.88C46.2259 34.08 46.1859 34.88 46.1859 35.28C46.1859 37.24 46.5259 38.58 47.2059 39.3C47.8859 39.98 48.9859 40.32 50.5059 40.32C52.6659 40.32 54.5059 39.82 56.0259 38.82C57.5859 37.82 59.2859 36.3 61.1259 34.26H63.1659C58.7259 41.66 53.2259 45.36 46.6659 45.36ZM46.7859 30C48.2659 29.92 49.6659 29.4 50.9859 28.44C52.3459 27.48 53.4259 26.26 54.2259 24.78C55.0659 23.3 55.4859 21.74 55.4859 20.1C55.4859 18.46 54.9859 17.64 53.9859 17.64C52.5459 17.64 51.1259 18.9 49.7259 21.42C48.3659 23.94 47.3859 26.8 46.7859 30ZM67.0533 45.36C65.1333 45.36 63.5733 44.76 62.3733 43.56C61.2133 42.36 60.6333 40.56 60.6333 38.16C60.6333 37.16 60.7933 35.86 61.1133 34.26L65.1933 15H73.8333L69.5133 35.4C69.3933 36 69.3333 36.56 69.3333 37.08C69.3333 38.72 69.9333 39.54 71.1333 39.54C72.2533 39.54 73.2133 39.08 74.0133 38.16C74.8133 37.2 75.4533 35.9 75.9333 34.26L80.0133 15H88.6533L84.3333 35.4C84.1733 36 84.0933 36.64 84.0933 37.32C84.0933 38.12 84.2733 38.7 84.6333 39.06C85.0333 39.38 85.6733 39.54 86.5533 39.54C87.6733 39.54 88.6333 39.06 89.4333 38.1C90.2733 37.14 90.9333 35.86 91.4133 34.26H93.9333C92.4533 38.58 90.6133 41.52 88.4133 43.08C86.2533 44.6 84.0733 45.36 81.8733 45.36C80.1533 45.36 78.7733 44.88 77.7333 43.92C76.7333 42.96 76.1333 41.54 75.9333 39.66C74.5733 41.86 73.1333 43.36 71.6133 44.16C70.1333 44.96 68.6133 45.36 67.0533 45.36ZM76.3533 12.06C73.8733 12.06 71.9533 11.6 70.5933 10.68C69.2333 9.76 68.5533 8.5 68.5533 6.9C68.5533 5.58 68.9133 4.52 69.6333 3.72C70.3933 2.92 71.3733 2.52 72.5733 2.52C73.7333 2.52 74.6333 2.8 75.2733 3.36C75.9533 3.92 76.2933 4.72 76.2933 5.76C76.2933 7.04 75.8133 8 74.8533 8.64C75.3733 8.8 76.1733 8.88 77.2533 8.88C79.0533 8.88 80.7933 8.34 82.4733 7.26C84.1933 6.14 85.5333 4.34 86.4933 1.86H89.0133C87.7333 5.58 86.0333 8.22 83.9133 9.78C81.7933 11.3 79.2733 12.06 76.3533 12.06ZM127.886 45.36C125.446 45.36 123.646 44.72 122.486 43.44C121.366 42.12 120.806 40.5 120.806 38.58C120.806 37.74 120.906 36.8 121.106 35.76C121.306 34.68 121.506 33.64 121.706 32.64C121.946 31.64 122.106 31 122.186 30.72C122.506 29.32 122.806 27.94 123.086 26.58C123.366 25.22 123.506 24.12 123.506 23.28C123.506 21.24 122.786 20.22 121.346 20.22C120.306 20.22 119.386 20.74 118.586 21.78C117.786 22.78 117.146 24.1 116.666 25.74L112.586 45H103.946L108.326 24.3C108.446 23.82 108.506 23.32 108.506 22.8C108.506 21.04 107.906 20.16 106.706 20.16C105.586 20.16 104.606 20.68 103.766 21.72C102.966 22.72 102.326 24.06 101.846 25.74L97.7663 45H89.1262L95.4863 15H104.126L103.466 18.12C105.506 15.84 107.946 14.7 110.786 14.7C114.306 14.7 116.366 16.42 116.966 19.86C119.166 16.46 121.946 14.76 125.306 14.76C127.346 14.76 128.966 15.32 130.166 16.44C131.366 17.56 131.966 19.26 131.966 21.54C131.966 22.7 131.826 24 131.546 25.44C131.266 26.84 130.866 28.56 130.346 30.6C130.026 31.84 129.726 33.06 129.446 34.26C129.206 35.42 129.086 36.34 129.086 37.02C129.086 37.82 129.266 38.44 129.626 38.88C129.986 39.32 130.606 39.54 131.486 39.54C132.686 39.54 133.646 39.12 134.366 38.28C135.086 37.4 135.806 36.06 136.526 34.26H139.046C137.566 38.66 135.846 41.62 133.886 43.14C131.966 44.62 129.966 45.36 127.886 45.36ZM145.103 45.36C142.143 45.36 139.843 44.6 138.203 43.08C136.563 41.52 135.743 39.1 135.743 35.82C135.743 33.06 136.283 30.02 137.363 26.7C138.443 23.38 140.203 20.52 142.643 18.12C145.083 15.68 148.183 14.46 151.943 14.46C156.343 14.46 158.543 16.38 158.543 20.22C158.543 22.46 157.903 24.52 156.623 26.4C155.343 28.28 153.643 29.8 151.523 30.96C149.403 32.08 147.143 32.72 144.743 32.88C144.663 34.08 144.623 34.88 144.623 35.28C144.623 37.24 144.963 38.58 145.643 39.3C146.323 39.98 147.423 40.32 148.943 40.32C151.103 40.32 152.943 39.82 154.463 38.82C156.023 37.82 157.723 36.3 159.563 34.26H161.603C157.163 41.66 151.663 45.36 145.103 45.36ZM145.223 30C146.703 29.92 148.103 29.4 149.423 28.44C150.783 27.48 151.863 26.26 152.663 24.78C153.503 23.3 153.923 21.74 153.923 20.1C153.923 18.46 153.423 17.64 152.423 17.64C150.983 17.64 149.563 18.9 148.163 21.42C146.803 23.94 145.823 26.8 145.223 30ZM164.111 12.78H172.751L171.791 17.28C173.791 15.56 176.131 14.7 178.811 14.7C181.051 14.7 182.831 15.44 184.151 16.92C185.471 18.4 186.131 20.82 186.131 24.18C186.131 27.34 185.671 30.54 184.751 33.78C183.831 36.98 182.271 39.72 180.071 42C177.871 44.24 174.971 45.36 171.371 45.36C168.811 45.36 167.111 44.64 166.271 43.2L163.151 57.84L154.091 60L164.111 12.78ZM169.511 40.14C171.431 40.14 173.011 39.24 174.251 37.44C175.531 35.64 176.451 33.5 177.011 31.02C177.611 28.5 177.911 26.16 177.911 24C177.911 20.68 176.911 19.02 174.911 19.02C174.191 19.02 173.451 19.28 172.691 19.8C171.971 20.32 171.331 21.04 170.771 21.96L167.231 38.76C167.551 39.68 168.311 40.14 169.511 40.14ZM193.557 45.36C191.637 45.36 190.077 44.76 188.877 43.56C187.717 42.36 187.137 40.56 187.137 38.16C187.137 37.16 187.297 35.86 187.617 34.26L191.697 15H200.337L196.017 35.4C195.897 36 195.837 36.56 195.837 37.08C195.837 38.72 196.437 39.54 197.637 39.54C198.757 39.54 199.717 39.08 200.517 38.16C201.317 37.2 201.957 35.9 202.437 34.26L206.517 15H215.157L210.837 35.4C210.677 36 210.597 36.64 210.597 37.32C210.597 38.12 210.777 38.7 211.137 39.06C211.537 39.38 212.177 39.54 213.057 39.54C214.177 39.54 215.137 39.06 215.937 38.1C216.777 37.14 217.437 35.86 217.917 34.26H220.437C218.957 38.58 217.117 41.52 214.917 43.08C212.757 44.6 210.577 45.36 208.377 45.36C206.657 45.36 205.277 44.88 204.237 43.92C203.237 42.96 202.637 41.54 202.437 39.66C201.077 41.86 199.637 43.36 198.117 44.16C196.637 44.96 195.117 45.36 193.557 45.36ZM239.69 45.36C237.41 45.36 235.65 44.76 234.41 43.56C233.21 42.32 232.61 40.8 232.61 39C232.61 37.84 233.07 35.04 233.99 30.6H227.33L224.27 45H215.63L221.99 15H230.63L228.05 27H234.77L237.47 15H245.51L242.33 29.88C241.93 31.6 241.59 33.1 241.31 34.38C241.03 35.66 240.89 36.54 240.89 37.02C240.89 38.7 241.69 39.54 243.29 39.54C244.41 39.54 245.31 39.16 245.99 38.4C246.67 37.64 247.45 36.26 248.33 34.26H250.85C248.33 41.66 244.61 45.36 239.69 45.36ZM256.36 45.36C253.4 45.36 251.1 44.8 249.46 43.68C247.86 42.56 247.06 40.86 247.06 38.58C247.06 37.1 247.4 35.82 248.08 34.74C248.72 33.62 249.5 32.7 250.42 31.98C251.34 31.22 252.56 30.36 254.08 29.4C256 28.24 257.42 27.2 258.34 26.28C259.3 25.32 259.78 24.14 259.78 22.74C259.78 21.86 259.54 21.18 259.06 20.7C258.62 20.18 257.94 19.92 257.02 19.92C255.7 19.92 254.52 20.42 253.48 21.42C252.44 22.42 251.46 24 250.54 26.16H247.66C248.98 22.4 250.66 19.52 252.7 17.52C254.74 15.48 257.42 14.46 260.74 14.46C263.06 14.46 264.98 15.02 266.5 16.14C268.06 17.26 268.84 18.96 268.84 21.24C268.84 22.96 268.48 24.46 267.76 25.74C267.04 27.02 266.16 28.08 265.12 28.92C264.08 29.72 262.78 30.6 261.22 31.56C259.46 32.64 258.18 33.58 257.38 34.38C256.58 35.14 256.18 36.06 256.18 37.14C256.18 39.26 257.6 40.32 260.44 40.32C262.24 40.32 263.94 39.86 265.54 38.94C267.18 38.02 268.94 36.46 270.82 34.26H272.86C270.7 37.7 268.28 40.42 265.6 42.42C262.96 44.38 259.88 45.36 256.36 45.36Z" fill="#EABF3C"/>
</svg>
